# xmcd
#
# Track frame offsets:
#	150
#	17940
#	36260
#	57367
#	76545
#	88637
#
# Disc length: 1434 seconds
#
# Revision: 0
# Processed by: cddbd v1.5.2PL0 Copyright (c) Steve Scherf et al.
# Submitted via: EasyCDDAExtractor 16.0.8.1
#
DISCID=3e059806
DTITLE=Tritono Blues - Mojito do Bom
DYEAR=1900
DGENRE=Blues
TTITLE0=Serra do Mar
TTITLE1=Candelabro Italiano
TTITLE2=Demorei Tanto
TTITLE3=Musa do Bar
TTITLE4=Rotina da Semana
TTITLE5=Brasil, Brasileiro
EXTD=
EXTT0=
EXTT1=
EXTT2=
EXTT3=
EXTT4=
EXTT5=
PLAYORDER=
